<svg width="24" height="24" viewBox="0 0 24 24" fill="none" xmlns="http://www.w3.org/2000/svg">
  <g>
    <path d="M21.805 12.218c0-.638-.057-1.252-.163-1.84H12v3.481h5.509a4.71 4.71 0 0 1-2.043 3.09v2.57h3.305c1.934-1.783 3.034-4.41 3.034-7.301z" fill="#4285F4"/>
    <path d="M12 22c2.7 0 4.97-.89 6.627-2.418l-3.305-2.57c-.917.614-2.088.978-3.322.978-2.554 0-4.72-1.726-5.495-4.045H3.09v2.59A9.997 9.997 0 0 0 12 22z" fill="#34A853"/>
    <path d="M6.505 13.945A5.997 5.997 0 0 1 6.09 12c0-.677.116-1.334.32-1.945V7.465H3.09A9.997 9.997 0 0 0 2 12c0 1.57.377 3.055 1.09 4.535l3.415-2.59z" fill="#FBBC05"/>
    <path d="M12 6.875c1.47 0 2.782.506 3.818 1.5l2.863-2.863C16.97 3.89 14.7 3 12 3A9.997 9.997 0 0 0 3.09 7.465l3.415 2.59C7.28 8.601 9.446 6.875 12 6.875z" fill="#EA4335"/>
  </g>
</svg> 